<svg width="40" height="40" viewBox="0 0 40 40" fill="none" xmlns="http://www.w3.org/2000/svg">
<path d="M19.9999 3.33337C10.7999 3.33337 3.33325 10.8 3.33325 20C3.33325 29.2 10.7999 36.6667 19.9999 36.6667C29.1999 36.6667 36.6666 29.2 36.6666 20C36.6666 10.8 29.1999 3.33337 19.9999 3.33337ZM19.9999 10C23.2166 10 25.8333 12.6167 25.8333 15.8334C25.8333 19.05 23.2166 21.6667 19.9999 21.6667C16.7833 21.6667 14.1666 19.05 14.1666 15.8334C14.1666 12.6167 16.7833 10 19.9999 10ZM19.9999 33.3334C16.6166 33.3334 12.6166 31.9667 9.76659 28.5334C12.6859 26.2429 16.2893 24.998 19.9999 24.998C23.7106 24.998 27.3139 26.2429 30.2332 28.5334C27.3833 31.9667 23.3833 33.3334 19.9999 33.3334Z" fill="#5F41B2"/>
</svg>
